<svg width="594" height="284" viewBox="0 0 594 284" fill="none" xmlns="http://www.w3.org/2000/svg">
<g filter="url(#filter0_b_201_19)">
<path d="M33 62.0482V133.121L59.8797 148.097V91.0999L33 62.0482Z" fill="#6770EF" fill-opacity="0.8"/>
<path d="M96.783 26.5118L33 62.0482L59.8797 91.0999L123.663 55.5635L96.783 26.5118Z" fill="#6770EF" fill-opacity="0.8"/>
<path d="M160.566 62.0482L96.783 26.5118L123.663 55.5635L160.566 76.124V62.0482Z" fill="#6770EF" fill-opacity="0.8"/>
<path d="M33 133.121L59.8797 162.173V148.097L33 133.121Z" fill="#6770EF" fill-opacity="0.8"/>
<path d="M187.446 91.0999L160.566 62.0482V76.124L187.446 91.0999Z" fill="#6770EF" fill-opacity="0.8"/>
<path d="M187.446 162.173V91.0999L160.566 76.124V133.121L187.446 162.173Z" fill="#6770EF" fill-opacity="0.4"/>
<path d="M160.566 133.121L96.783 168.658L123.663 197.709L187.446 162.173L160.566 133.121Z" fill="#6770EF" fill-opacity="0.4"/>
<path d="M59.8797 162.173L123.663 197.709L96.783 168.658L59.8797 148.097V162.173Z" fill="#6770EF" fill-opacity="0.4"/>
<path d="M33.7989 62.1755L96.6829 27.1399L122.864 55.4362L59.9797 90.4718L33.7989 62.1755ZM59.3797 91.2958V147.246L33.5 132.827V63.3249L59.3797 91.2958ZM35.4989 135.086L59.3797 148.391V160.896L35.4989 135.086ZM99.2819 28.4764L160.066 62.342V75.2731L123.976 55.1655L99.2819 28.4764ZM161.066 75.8302V63.3249L184.947 89.1353L161.066 75.8302ZM160.466 133.749L186.647 162.046L123.763 197.081L97.5819 168.785L160.466 133.749ZM96.4701 169.056L121.164 195.745L60.3797 161.879V148.948L96.4701 169.056ZM186.946 91.3937V160.896L161.066 132.925V76.975L186.946 91.3937Z" stroke="#6770EF"/>
<path fill-rule="evenodd" clip-rule="evenodd" d="M99.6439 204.237C99.2277 203.79 98.8174 203.337 98.4132 202.88L99.6439 204.237ZM236.142 143.694L239.045 146.9C238.111 145.803 237.143 144.733 236.142 143.694ZM128.151 235.663C128.795 236.404 129.456 237.132 130.131 237.846L128.151 235.663ZM207.102 111.623L207.921 112.528C207.651 112.224 207.378 111.923 207.102 111.623Z" fill="#FF00FF"/>
<path d="M153.248 227.311C193.033 227.311 225.285 196.188 225.285 157.795C225.285 148.291 223.309 139.233 219.732 130.982C209.055 124.943 196.623 121.48 183.353 121.48C143.568 121.48 111.315 152.604 111.315 190.997C111.315 200.5 113.292 209.558 116.869 217.809C127.546 223.849 139.978 227.311 153.248 227.311Z" fill="url(#paint0_linear_201_19)" fill-opacity="0.8"/>
<path d="M225.285 157.795C225.285 196.188 193.033 227.311 153.248 227.311L183.353 260.513C223.138 260.513 255.39 229.39 255.39 190.997L225.285 157.795Z" fill="url(#paint1_linear_201_19)" fill-opacity="0.8"/>
<path d="M183.353 260.513L153.248 227.311C139.978 227.311 127.546 223.849 116.869 217.809C119.693 224.323 123.515 230.333 128.151 235.663L130.131 237.846C143.305 251.774 162.271 260.513 183.353 260.513Z" fill="url(#paint2_linear_201_19)" fill-opacity="0.8"/>
<path d="M225.285 157.795L255.39 190.997C255.39 174.257 249.259 158.899 239.045 146.9L236.142 143.694C231.359 138.725 225.832 134.433 219.732 130.982C223.309 139.233 225.285 148.291 225.285 157.795Z" fill="url(#paint3_linear_201_19)" fill-opacity="0.8"/>
<path d="M153.248 88.2781C113.462 88.2781 81.2102 119.402 81.2102 157.795L111.315 190.997C111.315 152.604 143.568 121.48 183.353 121.48L153.248 88.2781Z" fill="#F97E86" fill-opacity="0.4"/>
<path d="M153.248 88.2781L183.353 121.48C196.623 121.48 209.055 124.943 219.732 130.982C216.801 124.223 212.795 118.005 207.921 112.528L207.102 111.623C193.907 97.301 174.669 88.2781 153.248 88.2781Z" fill="#F97E86" fill-opacity="0.4"/>
<path d="M111.315 190.997L81.2102 157.795C81.2102 174.998 87.6858 190.742 98.4132 202.88L99.6439 204.237C104.61 209.571 110.419 214.16 116.869 217.809C113.292 209.558 111.315 200.5 111.315 190.997Z" fill="#F97E86" fill-opacity="0.4"/>
<path d="M236.142 143.694L207.921 112.528C212.795 118.005 216.801 124.223 219.732 130.982C225.832 134.433 231.359 138.725 236.142 143.694Z" fill="#F97E86" fill-opacity="0.4"/>
<path d="M128.151 235.663C123.515 230.333 119.693 224.323 116.869 217.809C110.419 214.16 104.61 209.571 99.6439 204.237L113.897 219.95L128.151 235.663Z" fill="#F97E86" fill-opacity="0.4"/>
<path d="M238.669 147.23C248.54 158.829 254.567 173.584 254.878 189.687L225.785 157.601C225.76 148.625 223.984 140.044 220.77 132.162C226.319 135.454 231.366 139.455 235.776 144.035C235.778 144.037 235.78 144.039 235.781 144.041L238.664 147.224C238.666 147.226 238.668 147.228 238.669 147.23ZM225.773 159.077L254.89 191.189C254.783 229.13 222.932 259.898 183.574 260.013L154.369 227.803C193.455 227.231 225.071 196.811 225.773 159.077ZM182.217 260.005C161.733 259.697 143.342 251.084 130.498 237.506C130.497 237.505 130.496 237.504 130.494 237.502L128.528 235.335C128.527 235.333 128.526 235.332 128.525 235.331C124.248 230.412 120.669 224.911 117.935 218.969C128.326 224.569 140.291 227.774 153.026 227.811L182.217 260.005ZM110.827 189.714L81.7105 157.602C81.818 119.661 113.669 88.8934 153.026 88.7785L182.232 120.988C143.146 121.56 111.529 151.981 110.827 189.714ZM98.7855 202.546C88.4088 190.804 82.0423 175.667 81.7228 159.104L110.816 191.19C110.841 200.167 112.616 208.747 115.83 216.629C109.938 213.134 104.611 208.838 100.012 203.899C100.011 203.898 100.011 203.897 100.01 203.896L98.7878 202.549C98.7871 202.548 98.7863 202.547 98.7855 202.546ZM107.439 212.086C110.281 214.322 113.301 216.355 116.477 218.161L116.477 218.162L116.477 218.162C117.905 221.433 119.583 224.578 121.488 227.574L114.268 219.614L107.439 212.086ZM218.666 129.823C208.275 124.222 196.31 121.017 183.575 120.98L154.384 88.7867C175.205 89.0994 193.864 97.9932 206.732 111.96C206.733 111.961 206.734 111.961 206.734 111.962L207.548 112.86C207.548 112.861 207.549 112.862 207.55 112.862C212.06 117.931 215.82 123.638 218.666 129.823ZM220.124 130.63L220.123 130.63C218.694 127.354 217.013 124.206 215.105 121.207L229.085 136.645C226.265 134.432 223.271 132.42 220.124 130.63L220.124 130.63ZM183.353 121.98C196.475 121.98 208.769 125.388 219.339 131.335C222.848 139.483 224.785 148.42 224.785 157.795C224.785 195.895 192.774 226.811 153.248 226.811C140.126 226.811 127.831 223.403 117.261 217.456C113.752 209.308 111.815 200.371 111.815 190.997C111.815 152.896 143.827 121.98 183.353 121.98Z" stroke="#F97E86"/>
</g>
<path d="M367.39 62.0482V133.121L394.27 148.097V91.0999L367.39 62.0482Z" fill="#6770EF" fill-opacity="0.8"/>
<path d="M431.173 26.5118L367.39 62.0482L394.27 91.0999L458.053 55.5635L431.173 26.5118Z" fill="#6770EF" fill-opacity="0.8"/>
<path d="M494.956 62.0482L431.173 26.5118L458.053 55.5635L494.956 76.124V62.0482Z" fill="#6770EF" fill-opacity="0.8"/>
<path d="M367.39 133.121L394.27 162.173V148.097L367.39 133.121Z" fill="#6770EF" fill-opacity="0.8"/>
<path d="M521.836 91.0999L494.956 62.0482V76.124L521.836 91.0999Z" fill="#6770EF" fill-opacity="0.8"/>
<path d="M521.836 162.173V91.0999L494.956 76.124V133.121L521.836 162.173Z" fill="#6770EF" fill-opacity="0.4"/>
<path d="M494.956 133.121L431.173 168.658L458.053 197.709L521.836 162.173L494.956 133.121Z" fill="#6770EF" fill-opacity="0.4"/>
<path d="M394.27 162.173L458.053 197.709L431.173 168.658L394.27 148.097V162.173Z" fill="#6770EF" fill-opacity="0.4"/>
<path d="M368.189 62.1755L431.073 27.1399L457.254 55.4362L394.37 90.4718L368.189 62.1755ZM393.77 91.2958V147.246L367.89 132.827V63.3249L393.77 91.2958ZM369.889 135.086L393.77 148.391V160.896L369.889 135.086ZM433.672 28.4764L494.456 62.342V75.2731L458.366 55.1655L433.672 28.4764ZM495.456 75.8302V63.3249L519.337 89.1353L495.456 75.8302ZM494.856 133.749L521.037 162.046L458.153 197.081L431.972 168.785L494.856 133.749ZM430.86 169.056L455.554 195.745L394.77 161.879V148.948L430.86 169.056ZM521.336 91.3937V160.896L495.456 132.925V76.975L521.336 91.3937Z" stroke="#6770EF"/>
<g filter="url(#filter1_b_201_19)">
<path d="M449.989 223.389L481.88 241.158L513.772 258.926L486.892 229.874L449.989 209.314V223.389Z" fill="url(#paint4_linear_201_19)" fill-opacity="0.8"/>
<path d="M486.892 229.874L550.675 194.338V137.341L513.772 116.78L449.989 152.317V209.314L486.892 229.874Z" fill="url(#paint5_linear_201_19)" fill-opacity="0.8"/>
<path d="M550.675 194.338L486.892 229.874L513.772 258.926L577.555 223.389L550.675 194.338Z" fill="url(#paint6_linear_201_19)" fill-opacity="0.8"/>
<path d="M577.555 223.389V152.317L550.675 137.341V194.338L577.555 223.389Z" fill="url(#paint7_linear_201_19)" fill-opacity="0.8"/>
<path d="M423.109 123.265V194.338L449.989 209.314V152.317L423.109 123.265Z" fill="#6770EF" fill-opacity="0.4"/>
<path d="M486.892 87.7284L423.109 123.265L449.989 152.317L513.772 116.78L486.892 87.7284Z" fill="#6770EF" fill-opacity="0.4"/>
<path d="M550.675 123.265L486.892 87.7284L513.772 116.78L550.675 137.341V123.265Z" fill="#6770EF" fill-opacity="0.4"/>
<path d="M577.555 152.317L550.675 123.265V137.341L577.555 152.317Z" fill="#6770EF" fill-opacity="0.4"/>
<path d="M423.109 194.338L449.989 223.389V209.314L423.109 194.338Z" fill="#6770EF" fill-opacity="0.4"/>
<path d="M423.908 123.392L486.792 88.3565L512.973 116.653L450.089 151.688L423.908 123.392ZM423.609 194.044V124.541L449.489 152.512V208.463L423.609 194.044ZM450.489 223.096V210.165L486.579 230.272L511.273 256.961L482.124 240.721L450.489 223.096ZM551.175 124.541L575.056 150.352L551.175 137.047V124.541ZM489.391 89.693L550.175 123.559V136.49L514.085 116.382L489.391 89.693ZM513.772 117.352L550.175 137.634V194.044L486.892 229.302L450.489 209.02V152.61L513.772 117.352ZM487.691 230.001L550.575 194.966L576.756 223.262L513.872 258.298L487.691 230.001ZM577.055 222.113L551.175 194.142V138.192L577.055 152.61V222.113ZM449.489 222.113L425.608 196.302L449.489 209.607V222.113Z" stroke="#6770EF"/>
</g>
<path d="M287.39 140.513V146.513H323.39V152.513H329.39V146.513H335.39V140.513H329.39V134.513H323.39V140.513H287.39ZM317.39 128.513H323.39V134.513H317.39V128.513ZM317.39 128.513H311.39V122.513H317.39V128.513ZM317.39 158.513H323.39V152.513H317.39V158.513ZM317.39 158.513H311.39V164.513H317.39V158.513Z" fill="#F5D632"/>
<defs>
<filter id="filter0_b_201_19" x="23" y="16.5118" width="242.39" height="254.001" filterUnits="userSpaceOnUse" color-interpolation-filters="sRGB">
<feFlood flood-opacity="0" result="BackgroundImageFix"/>
<feGaussianBlur in="BackgroundImageFix" stdDeviation="5"/>
<feComposite in2="SourceAlpha" operator="in" result="effect1_backgroundBlur_201_19"/>
<feBlend mode="normal" in="SourceGraphic" in2="effect1_backgroundBlur_201_19" result="shape"/>
</filter>
<filter id="filter1_b_201_19" x="413.109" y="77.7284" width="174.446" height="191.198" filterUnits="userSpaceOnUse" color-interpolation-filters="sRGB">
<feFlood flood-opacity="0" result="BackgroundImageFix"/>
<feGaussianBlur in="BackgroundImageFix" stdDeviation="5"/>
<feComposite in2="SourceAlpha" operator="in" result="effect1_backgroundBlur_201_19"/>
<feBlend mode="normal" in="SourceGraphic" in2="effect1_backgroundBlur_201_19" result="shape"/>
</filter>
<linearGradient id="paint0_linear_201_19" x1="135" y1="147.512" x2="227" y2="253.512" gradientUnits="userSpaceOnUse">
<stop offset="0.290457" stop-color="#F97E86"/>
<stop offset="1" stop-color="#F5D632"/>
</linearGradient>
<linearGradient id="paint1_linear_201_19" x1="135" y1="147.512" x2="227" y2="253.512" gradientUnits="userSpaceOnUse">
<stop offset="0.290457" stop-color="#F97E86"/>
<stop offset="1" stop-color="#F5D632"/>
</linearGradient>
<linearGradient id="paint2_linear_201_19" x1="135" y1="147.512" x2="227" y2="253.512" gradientUnits="userSpaceOnUse">
<stop offset="0.290457" stop-color="#F97E86"/>
<stop offset="1" stop-color="#F5D632"/>
</linearGradient>
<linearGradient id="paint3_linear_201_19" x1="135" y1="147.512" x2="227" y2="253.512" gradientUnits="userSpaceOnUse">
<stop offset="0.290457" stop-color="#F97E86"/>
<stop offset="1" stop-color="#F5D632"/>
</linearGradient>
<linearGradient id="paint4_linear_201_19" x1="473.39" y1="138" x2="552.39" y2="243" gradientUnits="userSpaceOnUse">
<stop offset="0.356365" stop-color="#6770EF"/>
<stop offset="1" stop-color="#FE0DF3"/>
</linearGradient>
<linearGradient id="paint5_linear_201_19" x1="473.39" y1="138" x2="552.39" y2="243" gradientUnits="userSpaceOnUse">
<stop offset="0.356365" stop-color="#6770EF"/>
<stop offset="1" stop-color="#FE0DF3"/>
</linearGradient>
<linearGradient id="paint6_linear_201_19" x1="473.39" y1="138" x2="552.39" y2="243" gradientUnits="userSpaceOnUse">
<stop offset="0.356365" stop-color="#6770EF"/>
<stop offset="1" stop-color="#FE0DF3"/>
</linearGradient>
<linearGradient id="paint7_linear_201_19" x1="473.39" y1="138" x2="552.39" y2="243" gradientUnits="userSpaceOnUse">
<stop offset="0.356365" stop-color="#6770EF"/>
<stop offset="1" stop-color="#FE0DF3"/>
</linearGradient>
</defs>
</svg>
