<svg width="594" height="284" viewBox="0 0 594 284" fill="none" xmlns="http://www.w3.org/2000/svg">
<g clip-path="url(#clip0_201_20)">
<g filter="url(#filter0_b_201_20)">
<rect x="20" y="24" width="196" height="240" rx="17" fill="white" fill-opacity="0.1"/>
<path d="M58.82 73.24C57.7267 73.24 56.96 72.9267 56.52 72.3C56.08 71.66 55.86 70.8333 55.86 69.82V64.84H54.44V63.32L55.96 63.22L56.2 60.52H57.88V63.22H60.44V64.84H57.88V69.84C57.88 70.4133 57.9933 70.8533 58.22 71.16C58.4467 71.4667 58.8133 71.62 59.32 71.62C59.4933 71.62 59.6733 71.6 59.86 71.56C60.06 71.5067 60.2333 71.4467 60.38 71.38L60.74 72.88C60.4733 72.9733 60.1733 73.0533 59.84 73.12C59.5067 73.2 59.1667 73.24 58.82 73.24ZM62.9917 77.1C62.7384 77.1 62.5117 77.08 62.3117 77.04C62.1251 77 61.9451 76.9533 61.7717 76.9L62.1517 75.32C62.2451 75.3467 62.3584 75.3733 62.4917 75.4C62.6251 75.44 62.7517 75.46 62.8717 75.46C63.4051 75.46 63.8384 75.28 64.1717 74.92C64.5051 74.5733 64.7584 74.1333 64.9317 73.6L65.1317 72.94L61.2517 63.22H63.3117L65.1317 68.28C65.2784 68.7067 65.4251 69.16 65.5717 69.64C65.7317 70.1067 65.8851 70.5733 66.0317 71.04H66.1117C66.2451 70.5867 66.3717 70.1267 66.4917 69.66C66.6251 69.18 66.7584 68.72 66.8917 68.28L68.4717 63.22H70.4317L66.8317 73.6C66.5784 74.2933 66.2851 74.9 65.9517 75.42C65.6184 75.9533 65.2117 76.3667 64.7317 76.66C64.2517 76.9533 63.6717 77.1 62.9917 77.1ZM72.2197 76.98V63.22H73.8797L74.0397 64.3H74.0997C74.5264 63.94 74.9997 63.6333 75.5197 63.38C76.0397 63.1133 76.573 62.98 77.1197 62.98C77.9464 62.98 78.6464 63.1867 79.2197 63.6C79.793 64.0133 80.2264 64.5933 80.5197 65.34C80.8264 66.0867 80.9797 66.96 80.9797 67.96C80.9797 69.08 80.7797 70.0333 80.3797 70.82C79.9797 71.6067 79.4597 72.2067 78.8197 72.62C78.193 73.0333 77.513 73.24 76.7797 73.24C76.3397 73.24 75.8997 73.1467 75.4597 72.96C75.0197 72.76 74.593 72.4867 74.1797 72.14L74.2397 73.8V76.98H72.2197ZM76.3797 71.56C76.8597 71.56 77.2864 71.4267 77.6597 71.16C78.0464 70.88 78.3464 70.4733 78.5597 69.94C78.7864 69.4067 78.8997 68.7533 78.8997 67.98C78.8997 67.3 78.8197 66.7133 78.6597 66.22C78.4997 65.7133 78.2464 65.3267 77.8997 65.06C77.5664 64.7933 77.1264 64.66 76.5797 64.66C76.2064 64.66 75.8264 64.76 75.4397 64.96C75.0664 65.1467 74.6664 65.4467 74.2397 65.86V70.66C74.6264 70.9933 75.0064 71.2267 75.3797 71.36C75.753 71.4933 76.0864 71.56 76.3797 71.56ZM87.4911 73.24C86.5978 73.24 85.7911 73.04 85.0711 72.64C84.3644 72.2267 83.7978 71.64 83.3711 70.88C82.9444 70.12 82.7311 69.2 82.7311 68.12C82.7311 67.0667 82.9444 66.16 83.3711 65.4C83.7978 64.6267 84.3511 64.0333 85.0311 63.62C85.7111 63.1933 86.4311 62.98 87.1911 62.98C88.0444 62.98 88.7644 63.1733 89.3511 63.56C89.9511 63.9467 90.4044 64.4867 90.7111 65.18C91.0178 65.8733 91.1711 66.68 91.1711 67.6C91.1711 67.7867 91.1578 67.98 91.1311 68.18C91.1178 68.3667 91.0978 68.52 91.0711 68.64H84.3111L84.2911 67.24H89.4111C89.4111 66.3867 89.2244 65.7267 88.8511 65.26C88.4911 64.7933 87.9511 64.56 87.2311 64.56C86.8044 64.56 86.3911 64.68 85.9911 64.92C85.5911 65.16 85.2578 65.5467 84.9911 66.08C84.7378 66.6 84.6111 67.28 84.6111 68.12C84.6111 68.9333 84.7578 69.6 85.0511 70.12C85.3444 70.64 85.7244 71.0267 86.1911 71.28C86.6711 71.5333 87.1911 71.66 87.7511 71.66C88.1911 71.66 88.5978 71.5933 88.9711 71.46C89.3578 71.3267 89.7311 71.1467 90.0911 70.92L90.7911 72.2C90.3378 72.4933 89.8311 72.74 89.2711 72.94C88.7244 73.14 88.1311 73.24 87.4911 73.24ZM100.314 73V61.62H96.4541V59.9H106.214V61.62H102.354V73H100.314ZM109.249 73L106.609 63.22H108.649L109.949 68.54C110.042 69.0067 110.129 69.4733 110.209 69.94C110.302 70.3933 110.396 70.8533 110.489 71.32H110.569C110.662 70.8533 110.762 70.3933 110.869 69.94C110.976 69.4733 111.089 69.0067 111.209 68.54L112.589 63.22H114.469L115.869 68.54C115.989 69.0067 116.102 69.4733 116.209 69.94C116.316 70.3933 116.422 70.8533 116.529 71.32H116.609C116.702 70.8533 116.789 70.3933 116.869 69.94C116.962 69.4733 117.062 69.0067 117.169 68.54L118.449 63.22H120.349L117.809 73H115.389L114.129 68.14C114.022 67.6733 113.916 67.2133 113.809 66.76C113.716 66.2933 113.616 65.8067 113.509 65.3H113.429C113.322 65.8067 113.222 66.2933 113.129 66.76C113.036 67.2267 112.929 67.6933 112.809 68.16L111.589 73H109.249ZM126.358 73.24C125.465 73.24 124.658 73.04 123.938 72.64C123.232 72.2267 122.665 71.64 122.238 70.88C121.812 70.12 121.598 69.2 121.598 68.12C121.598 67.0667 121.812 66.16 122.238 65.4C122.665 64.6267 123.218 64.0333 123.898 63.62C124.578 63.1933 125.298 62.98 126.058 62.98C126.912 62.98 127.632 63.1733 128.218 63.56C128.818 63.9467 129.272 64.4867 129.578 65.18C129.885 65.8733 130.038 66.68 130.038 67.6C130.038 67.7867 130.025 67.98 129.998 68.18C129.985 68.3667 129.965 68.52 129.938 68.64H123.178L123.158 67.24H128.278C128.278 66.3867 128.092 65.7267 127.718 65.26C127.358 64.7933 126.818 64.56 126.098 64.56C125.672 64.56 125.258 64.68 124.858 64.92C124.458 65.16 124.125 65.5467 123.858 66.08C123.605 66.6 123.478 67.28 123.478 68.12C123.478 68.9333 123.625 69.6 123.918 70.12C124.212 70.64 124.592 71.0267 125.058 71.28C125.538 71.5333 126.058 71.66 126.618 71.66C127.058 71.66 127.465 71.5933 127.838 71.46C128.225 71.3267 128.598 71.1467 128.958 70.92L129.658 72.2C129.205 72.4933 128.698 72.74 128.138 72.94C127.592 73.14 126.998 73.24 126.358 73.24ZM136.397 73.24C135.504 73.24 134.697 73.04 133.977 72.64C133.271 72.2267 132.704 71.64 132.277 70.88C131.851 70.12 131.637 69.2 131.637 68.12C131.637 67.0667 131.851 66.16 132.277 65.4C132.704 64.6267 133.257 64.0333 133.937 63.62C134.617 63.1933 135.337 62.98 136.097 62.98C136.951 62.98 137.671 63.1733 138.257 63.56C138.857 63.9467 139.311 64.4867 139.617 65.18C139.924 65.8733 140.077 66.68 140.077 67.6C140.077 67.7867 140.064 67.98 140.037 68.18C140.024 68.3667 140.004 68.52 139.977 68.64H133.217L133.197 67.24H138.317C138.317 66.3867 138.131 65.7267 137.757 65.26C137.397 64.7933 136.857 64.56 136.137 64.56C135.711 64.56 135.297 64.68 134.897 64.92C134.497 65.16 134.164 65.5467 133.897 66.08C133.644 66.6 133.517 67.28 133.517 68.12C133.517 68.9333 133.664 69.6 133.957 70.12C134.251 70.64 134.631 71.0267 135.097 71.28C135.577 71.5333 136.097 71.66 136.657 71.66C137.097 71.66 137.504 71.5933 137.877 71.46C138.264 71.3267 138.637 71.1467 138.997 70.92L139.697 72.2C139.244 72.4933 138.737 72.74 138.177 72.94C137.631 73.14 137.037 73.24 136.397 73.24ZM145.441 73.24C144.348 73.24 143.581 72.9267 143.141 72.3C142.701 71.66 142.481 70.8333 142.481 69.82V64.84H141.061V63.32L142.581 63.22L142.821 60.52H144.501V63.22H147.061V64.84H144.501V69.84C144.501 70.4133 144.614 70.8533 144.841 71.16C145.068 71.4667 145.434 71.62 145.941 71.62C146.114 71.62 146.294 71.6 146.481 71.56C146.681 71.5067 146.854 71.4467 147.001 71.38L147.361 72.88C147.094 72.9733 146.794 73.0533 146.461 73.12C146.128 73.2 145.788 73.24 145.441 73.24ZM156.237 76.04C155.41 76.04 154.803 75.8467 154.417 75.46C154.03 75.0867 153.837 74.3733 153.837 73.32C153.837 72.84 153.85 72.4 153.877 72C153.917 71.6 153.95 71.2133 153.977 70.84C154.003 70.4533 154.017 70.04 154.017 69.6C154.017 69.2133 153.897 68.86 153.657 68.54C153.43 68.22 152.977 68.06 152.297 68.06V66.82C152.75 66.82 153.097 66.7467 153.337 66.6C153.59 66.44 153.763 66.2467 153.857 66.02C153.963 65.7933 154.017 65.5533 154.017 65.3C154.017 64.86 154.003 64.4467 153.977 64.06C153.95 63.6733 153.917 63.28 153.877 62.88C153.85 62.48 153.837 62.04 153.837 61.56C153.837 60.5067 154.03 59.7933 154.417 59.42C154.803 59.0333 155.41 58.84 156.237 58.84H157.237V59.96H156.757C156.25 59.96 155.91 60.0867 155.737 60.34C155.563 60.5933 155.477 61.0333 155.477 61.66C155.477 62.2333 155.49 62.8 155.517 63.36C155.557 63.9067 155.577 64.5133 155.577 65.18C155.577 65.86 155.477 66.3733 155.277 66.72C155.077 67.0533 154.75 67.28 154.297 67.4V67.48C154.75 67.6 155.077 67.8333 155.277 68.18C155.477 68.5267 155.577 69.0333 155.577 69.7C155.577 70.3533 155.557 70.96 155.517 71.52C155.49 72.0667 155.477 72.6333 155.477 73.22C155.477 73.8467 155.563 74.2867 155.737 74.54C155.91 74.7933 156.25 74.92 156.757 74.92H157.237V76.04H156.237ZM71.5556 99V89.22H73.5756V99H71.5556ZM72.5756 87.38C72.229 87.38 71.9356 87.2667 71.6956 87.04C71.4556 86.8 71.3356 86.5067 71.3356 86.16C71.3356 85.8133 71.4556 85.5267 71.6956 85.3C71.9356 85.0733 72.229 84.96 72.5756 84.96C72.9356 84.96 73.229 85.0733 73.4556 85.3C73.6956 85.5267 73.8156 85.8133 73.8156 86.16C73.8156 86.5067 73.6956 86.8 73.4556 87.04C73.229 87.2667 72.9356 87.38 72.5756 87.38ZM80.0333 99.24C78.8199 99.24 77.8466 98.7933 77.1133 97.9C76.3799 96.9933 76.0133 95.7333 76.0133 94.12C76.0133 93.0667 76.2066 92.16 76.5933 91.4C76.9933 90.6267 77.5133 90.0333 78.1533 89.62C78.7933 89.1933 79.4733 88.98 80.1933 88.98C80.7666 88.98 81.2533 89.08 81.6533 89.28C82.0533 89.4667 82.4466 89.7333 82.8333 90.08L82.7533 88.46V84.82H84.7733V99H83.1133L82.9533 97.9H82.8933C82.5333 98.26 82.1066 98.5733 81.6133 98.84C81.1199 99.1067 80.5933 99.24 80.0333 99.24ZM80.5133 97.56C80.9266 97.56 81.3133 97.4667 81.6733 97.28C82.0466 97.08 82.4066 96.7733 82.7533 96.36V91.56C82.3933 91.2267 82.0333 90.9933 81.6733 90.86C81.3266 90.7267 80.9666 90.66 80.5933 90.66C80.1266 90.66 79.7066 90.8 79.3333 91.08C78.9599 91.3467 78.6599 91.74 78.4333 92.26C78.2066 92.78 78.0933 93.3933 78.0933 94.1C78.0933 95.2067 78.2999 96.06 78.7133 96.66C79.1399 97.26 79.7399 97.56 80.5133 97.56ZM88.9447 92.24C88.5714 92.24 88.2514 92.1067 87.9847 91.84C87.718 91.5733 87.5847 91.2333 87.5847 90.82C87.5847 90.3933 87.718 90.0467 87.9847 89.78C88.2514 89.5133 88.5714 89.38 88.9447 89.38C89.3314 89.38 89.6514 89.5133 89.9047 89.78C90.1714 90.0467 90.3047 90.3933 90.3047 90.82C90.3047 91.2333 90.1714 91.5733 89.9047 91.84C89.6514 92.1067 89.3314 92.24 88.9447 92.24ZM88.9447 99.24C88.5714 99.24 88.2514 99.1067 87.9847 98.84C87.718 98.5733 87.5847 98.2333 87.5847 97.82C87.5847 97.3933 87.718 97.0467 87.9847 96.78C88.2514 96.5133 88.5714 96.38 88.9447 96.38C89.3314 96.38 89.6514 96.5133 89.9047 96.78C90.1714 97.0467 90.3047 97.3933 90.3047 97.82C90.3047 98.2333 90.1714 98.5733 89.9047 98.84C89.6514 99.1067 89.3314 99.24 88.9447 99.24ZM97.302 99V85.9H99.342V99H97.302ZM102.79 99V85.9H106.19C107.524 85.9 108.657 86.1467 109.59 86.64C110.537 87.1333 111.257 87.8667 111.75 88.84C112.244 89.8 112.49 90.9867 112.49 92.4C112.49 93.8133 112.244 95.0133 111.75 96C111.257 96.9867 110.55 97.7333 109.63 98.24C108.71 98.7467 107.597 99 106.29 99H102.79ZM104.83 97.34H106.05C106.997 97.34 107.79 97.1533 108.43 96.78C109.07 96.4067 109.557 95.86 109.89 95.14C110.224 94.4067 110.39 93.4933 110.39 92.4C110.39 91.3067 110.224 90.4067 109.89 89.7C109.557 88.98 109.07 88.4467 108.43 88.1C107.79 87.74 106.997 87.56 106.05 87.56H104.83V97.34ZM115.852 94.84L115.572 87.7L115.512 85.6H117.552L117.492 87.7L117.212 94.84H115.852ZM116.532 99.24C116.159 99.24 115.839 99.1067 115.572 98.84C115.306 98.5733 115.172 98.2333 115.172 97.82C115.172 97.3933 115.306 97.0467 115.572 96.78C115.839 96.5133 116.159 96.38 116.532 96.38C116.919 96.38 117.239 96.5133 117.492 96.78C117.759 97.0467 117.892 97.3933 117.892 97.82C117.892 98.2333 117.759 98.5733 117.492 98.84C117.239 99.1067 116.919 99.24 116.532 99.24ZM76.1156 125.24C75.6623 125.24 75.2023 125.133 74.7356 124.92C74.269 124.693 73.8223 124.38 73.3956 123.98H73.3356L73.1556 125H71.5556V110.82H73.5756V114.58L73.5156 116.26C73.9423 115.887 74.4023 115.58 74.8956 115.34C75.4023 115.1 75.9156 114.98 76.4356 114.98C77.2623 114.98 77.9623 115.187 78.5356 115.6C79.1223 116.013 79.5623 116.593 79.8556 117.34C80.1623 118.073 80.3156 118.947 80.3156 119.96C80.3156 121.067 80.1156 122.02 79.7156 122.82C79.3156 123.607 78.7956 124.207 78.1556 124.62C77.529 125.033 76.849 125.24 76.1156 125.24ZM75.7156 123.56C76.1956 123.56 76.6223 123.427 76.9956 123.16C77.3823 122.88 77.6823 122.473 77.8956 121.94C78.1223 121.407 78.2356 120.753 78.2356 119.98C78.2356 119.3 78.1556 118.713 77.9956 118.22C77.8356 117.713 77.5823 117.327 77.2356 117.06C76.9023 116.793 76.4623 116.66 75.9156 116.66C75.5423 116.66 75.1623 116.76 74.7756 116.96C74.389 117.147 73.989 117.447 73.5756 117.86V122.66C73.949 122.993 74.3223 123.227 74.6956 123.36C75.0823 123.493 75.4223 123.56 75.7156 123.56ZM86.6475 125.24C85.8342 125.24 85.0808 125.04 84.3875 124.64C83.6942 124.24 83.1275 123.66 82.6875 122.9C82.2608 122.127 82.0475 121.2 82.0475 120.12C82.0475 119.04 82.2608 118.12 82.6875 117.36C83.1275 116.587 83.6942 116 84.3875 115.6C85.0808 115.187 85.8342 114.98 86.6475 114.98C87.4475 114.98 88.1942 115.187 88.8875 115.6C89.5942 116 90.1608 116.587 90.5875 117.36C91.0275 118.12 91.2475 119.04 91.2475 120.12C91.2475 121.2 91.0275 122.127 90.5875 122.9C90.1608 123.66 89.5942 124.24 88.8875 124.64C88.1942 125.04 87.4475 125.24 86.6475 125.24ZM86.6475 123.58C87.1675 123.58 87.6142 123.44 87.9875 123.16C88.3742 122.867 88.6675 122.46 88.8675 121.94C89.0675 121.42 89.1675 120.813 89.1675 120.12C89.1675 119.427 89.0675 118.82 88.8675 118.3C88.6675 117.767 88.3742 117.36 87.9875 117.08C87.6142 116.787 87.1675 116.64 86.6475 116.64C86.1275 116.64 85.6808 116.787 85.3075 117.08C84.9342 117.36 84.6408 117.767 84.4275 118.3C84.2275 118.82 84.1275 119.427 84.1275 120.12C84.1275 120.813 84.2275 121.42 84.4275 121.94C84.6408 122.46 84.9342 122.867 85.3075 123.16C85.6808 123.44 86.1275 123.58 86.6475 123.58ZM97.0255 125.24C95.8121 125.24 94.8388 124.793 94.1055 123.9C93.3721 122.993 93.0055 121.733 93.0055 120.12C93.0055 119.067 93.1988 118.16 93.5855 117.4C93.9855 116.627 94.5055 116.033 95.1455 115.62C95.7855 115.193 96.4655 114.98 97.1855 114.98C97.7588 114.98 98.2455 115.08 98.6455 115.28C99.0455 115.467 99.4388 115.733 99.8255 116.08L99.7455 114.46V110.82H101.765V125H100.105L99.9455 123.9H99.8855C99.5255 124.26 99.0988 124.573 98.6055 124.84C98.1121 125.107 97.5855 125.24 97.0255 125.24ZM97.5055 123.56C97.9188 123.56 98.3055 123.467 98.6655 123.28C99.0388 123.08 99.3988 122.773 99.7455 122.36V117.56C99.3855 117.227 99.0255 116.993 98.6655 116.86C98.3188 116.727 97.9588 116.66 97.5855 116.66C97.1188 116.66 96.6988 116.8 96.3255 117.08C95.9521 117.347 95.6521 117.74 95.4255 118.26C95.1988 118.78 95.0855 119.393 95.0855 120.1C95.0855 121.207 95.2921 122.06 95.7055 122.66C96.1321 123.26 96.7321 123.56 97.5055 123.56ZM105.277 129.1C105.024 129.1 104.797 129.08 104.597 129.04C104.41 129 104.23 128.953 104.057 128.9L104.437 127.32C104.53 127.347 104.644 127.373 104.777 127.4C104.91 127.44 105.037 127.46 105.157 127.46C105.69 127.46 106.124 127.28 106.457 126.92C106.79 126.573 107.044 126.133 107.217 125.6L107.417 124.94L103.537 115.22H105.597L107.417 120.28C107.564 120.707 107.71 121.16 107.857 121.64C108.017 122.107 108.17 122.573 108.317 123.04H108.397C108.53 122.587 108.657 122.127 108.777 121.66C108.91 121.18 109.044 120.72 109.177 120.28L110.757 115.22H112.717L109.117 125.6C108.864 126.293 108.57 126.9 108.237 127.42C107.904 127.953 107.497 128.367 107.017 128.66C106.537 128.953 105.957 129.1 105.277 129.1ZM115.605 118.24C115.232 118.24 114.912 118.107 114.645 117.84C114.378 117.573 114.245 117.233 114.245 116.82C114.245 116.393 114.378 116.047 114.645 115.78C114.912 115.513 115.232 115.38 115.605 115.38C115.992 115.38 116.312 115.513 116.565 115.78C116.832 116.047 116.965 116.393 116.965 116.82C116.965 117.233 116.832 117.573 116.565 117.84C116.312 118.107 115.992 118.24 115.605 118.24ZM115.605 125.24C115.232 125.24 114.912 125.107 114.645 124.84C114.378 124.573 114.245 124.233 114.245 123.82C114.245 123.393 114.378 123.047 114.645 122.78C114.912 122.513 115.232 122.38 115.605 122.38C115.992 122.38 116.312 122.513 116.565 122.78C116.832 123.047 116.965 123.393 116.965 123.82C116.965 124.233 116.832 124.573 116.565 124.84C116.312 125.107 115.992 125.24 115.605 125.24ZM127.702 125.24C126.809 125.24 125.962 125.067 125.162 124.72C124.362 124.373 123.656 123.9 123.042 123.3L124.242 121.92C124.709 122.387 125.249 122.76 125.862 123.04C126.476 123.32 127.102 123.46 127.742 123.46C128.542 123.46 129.156 123.293 129.582 122.96C130.009 122.613 130.222 122.153 130.222 121.58C130.222 121.18 130.129 120.86 129.942 120.62C129.769 120.38 129.522 120.173 129.202 120C128.896 119.827 128.536 119.653 128.122 119.48L126.302 118.68C125.876 118.507 125.456 118.273 125.042 117.98C124.642 117.687 124.309 117.32 124.042 116.88C123.776 116.44 123.642 115.9 123.642 115.26C123.642 114.567 123.829 113.953 124.202 113.42C124.576 112.873 125.082 112.447 125.722 112.14C126.362 111.82 127.096 111.66 127.922 111.66C128.696 111.66 129.422 111.813 130.102 112.12C130.796 112.413 131.389 112.807 131.882 113.3L130.822 114.6C130.422 114.24 129.982 113.96 129.502 113.76C129.022 113.547 128.496 113.44 127.922 113.44C127.256 113.44 126.716 113.593 126.302 113.9C125.902 114.193 125.702 114.607 125.702 115.14C125.702 115.513 125.802 115.82 126.002 116.06C126.202 116.3 126.469 116.5 126.802 116.66C127.136 116.82 127.476 116.98 127.822 117.14L129.622 117.9C130.142 118.113 130.602 118.373 131.002 118.68C131.402 118.987 131.716 119.36 131.942 119.8C132.182 120.24 132.302 120.78 132.302 121.42C132.302 122.127 132.116 122.773 131.742 123.36C131.382 123.933 130.856 124.393 130.162 124.74C129.469 125.073 128.649 125.24 127.702 125.24ZM137.375 125.24C136.281 125.24 135.515 124.927 135.075 124.3C134.635 123.66 134.415 122.833 134.415 121.82V116.84H132.995V115.32L134.515 115.22L134.755 112.52H136.435V115.22H138.995V116.84H136.435V121.84C136.435 122.413 136.548 122.853 136.775 123.16C137.001 123.467 137.368 123.62 137.875 123.62C138.048 123.62 138.228 123.6 138.415 123.56C138.615 123.507 138.788 123.447 138.935 123.38L139.295 124.88C139.028 124.973 138.728 125.053 138.395 125.12C138.061 125.2 137.721 125.24 137.375 125.24ZM141.106 125V115.22H142.766L142.926 116.98H142.986C143.333 116.353 143.746 115.867 144.226 115.52C144.72 115.16 145.233 114.98 145.766 114.98C145.993 114.98 146.193 115 146.366 115.04C146.54 115.067 146.7 115.113 146.846 115.18L146.486 116.94C146.313 116.887 146.153 116.847 146.006 116.82C145.873 116.793 145.706 116.78 145.506 116.78C145.106 116.78 144.686 116.94 144.246 117.26C143.806 117.567 143.433 118.113 143.126 118.9V125H141.106ZM148.353 125V115.22H150.373V125H148.353ZM149.373 113.38C149.026 113.38 148.733 113.267 148.493 113.04C148.253 112.8 148.132 112.507 148.132 112.16C148.132 111.813 148.253 111.527 148.493 111.3C148.733 111.073 149.026 110.96 149.373 110.96C149.733 110.96 150.026 111.073 150.253 111.3C150.493 111.527 150.613 111.813 150.613 112.16C150.613 112.507 150.493 112.8 150.253 113.04C150.026 113.267 149.733 113.38 149.373 113.38ZM153.45 125V115.22H155.11L155.27 116.58H155.33C155.783 116.14 156.27 115.767 156.79 115.46C157.31 115.14 157.903 114.98 158.57 114.98C159.61 114.98 160.37 115.313 160.85 115.98C161.33 116.647 161.57 117.6 161.57 118.84V125H159.55V119.1C159.55 118.247 159.417 117.64 159.15 117.28C158.897 116.907 158.477 116.72 157.89 116.72C157.423 116.72 157.01 116.833 156.65 117.06C156.303 117.287 155.91 117.62 155.47 118.06V125H153.45ZM167.884 129.4C167.098 129.4 166.398 129.3 165.784 129.1C165.171 128.913 164.691 128.627 164.344 128.24C163.998 127.867 163.824 127.393 163.824 126.82C163.824 126.407 163.951 126.013 164.204 125.64C164.458 125.28 164.804 124.96 165.244 124.68V124.6C165.004 124.427 164.798 124.213 164.624 123.96C164.451 123.693 164.364 123.367 164.364 122.98C164.364 122.58 164.478 122.227 164.704 121.92C164.931 121.6 165.178 121.347 165.444 121.16V121.08C165.124 120.827 164.831 120.473 164.564 120.02C164.298 119.567 164.164 119.053 164.164 118.48C164.164 117.747 164.338 117.12 164.684 116.6C165.044 116.08 165.504 115.68 166.064 115.4C166.638 115.12 167.264 114.98 167.944 114.98C168.211 114.98 168.464 115.007 168.704 115.06C168.958 115.1 169.178 115.153 169.364 115.22H172.824V116.74H170.944C171.131 116.94 171.284 117.2 171.404 117.52C171.538 117.827 171.604 118.167 171.604 118.54C171.604 119.247 171.438 119.853 171.104 120.36C170.784 120.853 170.344 121.233 169.784 121.5C169.238 121.767 168.624 121.9 167.944 121.9C167.718 121.9 167.484 121.873 167.244 121.82C167.018 121.767 166.791 121.693 166.564 121.6C166.404 121.733 166.271 121.88 166.164 122.04C166.071 122.2 166.024 122.4 166.024 122.64C166.024 122.933 166.144 123.167 166.384 123.34C166.624 123.513 167.051 123.6 167.664 123.6H169.464C170.624 123.6 171.498 123.793 172.084 124.18C172.684 124.553 172.984 125.153 172.984 125.98C172.984 126.607 172.771 127.18 172.344 127.7C171.931 128.22 171.344 128.633 170.584 128.94C169.824 129.247 168.924 129.4 167.884 129.4ZM168.184 128.06C168.758 128.06 169.251 127.98 169.664 127.82C170.091 127.66 170.424 127.44 170.664 127.16C170.904 126.893 171.024 126.607 171.024 126.3C171.024 125.887 170.864 125.6 170.544 125.44C170.238 125.293 169.791 125.22 169.204 125.22H167.704C167.478 125.22 167.251 125.207 167.024 125.18C166.811 125.153 166.604 125.12 166.404 125.08C166.098 125.293 165.878 125.52 165.744 125.76C165.611 126.013 165.544 126.267 165.544 126.52C165.544 127 165.778 127.373 166.244 127.64C166.724 127.92 167.371 128.06 168.184 128.06ZM167.944 120.6C168.291 120.6 168.604 120.52 168.884 120.36C169.164 120.187 169.384 119.94 169.544 119.62C169.718 119.3 169.804 118.92 169.804 118.48C169.804 118.04 169.718 117.667 169.544 117.36C169.384 117.053 169.164 116.82 168.884 116.66C168.604 116.487 168.291 116.4 167.944 116.4C167.424 116.4 166.984 116.58 166.624 116.94C166.264 117.3 166.084 117.813 166.084 118.48C166.084 118.92 166.164 119.3 166.324 119.62C166.498 119.94 166.724 120.187 167.004 120.36C167.284 120.52 167.598 120.6 167.944 120.6ZM74.9356 151.24C73.7223 151.24 72.749 150.793 72.0156 149.9C71.2823 148.993 70.9156 147.733 70.9156 146.12C70.9156 145.067 71.109 144.16 71.4956 143.4C71.8956 142.627 72.4156 142.033 73.0556 141.62C73.6956 141.193 74.3756 140.98 75.0956 140.98C75.669 140.98 76.1556 141.08 76.5556 141.28C76.9556 141.467 77.349 141.733 77.7356 142.08L77.6556 140.46V136.82H79.6756V151H78.0156L77.8556 149.9H77.7956C77.4356 150.26 77.009 150.573 76.5156 150.84C76.0223 151.107 75.4956 151.24 74.9356 151.24ZM75.4156 149.56C75.829 149.56 76.2156 149.467 76.5756 149.28C76.949 149.08 77.309 148.773 77.6556 148.36V143.56C77.2956 143.227 76.9356 142.993 76.5756 142.86C76.229 142.727 75.869 142.66 75.4956 142.66C75.029 142.66 74.609 142.8 74.2356 143.08C73.8623 143.347 73.5623 143.74 73.3356 144.26C73.109 144.78 72.9956 145.393 72.9956 146.1C72.9956 147.207 73.2023 148.06 73.6156 148.66C74.0423 149.26 74.6423 149.56 75.4156 149.56ZM85.067 151.24C84.507 151.24 84.007 151.127 83.567 150.9C83.1404 150.66 82.8004 150.333 82.547 149.92C82.307 149.493 82.187 148.993 82.187 148.42C82.187 147.367 82.6537 146.553 83.587 145.98C84.5204 145.407 86.007 145.007 88.047 144.78C88.047 144.407 87.987 144.053 87.867 143.72C87.7604 143.387 87.567 143.12 87.287 142.92C87.0204 142.72 86.647 142.62 86.167 142.62C85.647 142.62 85.147 142.72 84.667 142.92C84.2004 143.12 83.7604 143.353 83.347 143.62L82.587 142.26C82.9204 142.047 83.2937 141.847 83.707 141.66C84.1204 141.46 84.5604 141.3 85.027 141.18C85.507 141.047 86.007 140.98 86.527 140.98C87.327 140.98 87.987 141.147 88.507 141.48C89.0404 141.813 89.4337 142.287 89.687 142.9C89.9404 143.513 90.067 144.253 90.067 145.12V151H88.407L88.247 149.88H88.187C87.747 150.253 87.267 150.573 86.747 150.84C86.227 151.107 85.667 151.24 85.067 151.24ZM85.687 149.64C86.1137 149.64 86.5137 149.54 86.887 149.34C87.2604 149.14 87.647 148.853 88.047 148.48V146.06C87.0737 146.18 86.3004 146.34 85.727 146.54C85.167 146.74 84.7604 146.987 84.507 147.28C84.267 147.573 84.147 147.9 84.147 148.26C84.147 148.74 84.2937 149.093 84.587 149.32C84.8804 149.533 85.247 149.64 85.687 149.64ZM95.9489 151.24C94.8556 151.24 94.0889 150.927 93.6489 150.3C93.2089 149.66 92.9889 148.833 92.9889 147.82V142.84H91.5689V141.32L93.0889 141.22L93.3289 138.52H95.0089V141.22H97.5689V142.84H95.0089V147.84C95.0089 148.413 95.1222 148.853 95.3489 149.16C95.5756 149.467 95.9422 149.62 96.4489 149.62C96.6222 149.62 96.8022 149.6 96.9889 149.56C97.1889 149.507 97.3622 149.447 97.5089 149.38L97.8689 150.88C97.6022 150.973 97.3022 151.053 96.9689 151.12C96.6356 151.2 96.2956 151.24 95.9489 151.24ZM103.468 151.24C102.574 151.24 101.768 151.04 101.048 150.64C100.341 150.227 99.7743 149.64 99.3477 148.88C98.921 148.12 98.7077 147.2 98.7077 146.12C98.7077 145.067 98.921 144.16 99.3477 143.4C99.7743 142.627 100.328 142.033 101.008 141.62C101.688 141.193 102.408 140.98 103.168 140.98C104.021 140.98 104.741 141.173 105.328 141.56C105.928 141.947 106.381 142.487 106.688 143.18C106.994 143.873 107.148 144.68 107.148 145.6C107.148 145.787 107.134 145.98 107.108 146.18C107.094 146.367 107.074 146.52 107.048 146.64H100.288L100.268 145.24H105.388C105.388 144.387 105.201 143.727 104.828 143.26C104.468 142.793 103.928 142.56 103.208 142.56C102.781 142.56 102.368 142.68 101.968 142.92C101.568 143.16 101.234 143.547 100.968 144.08C100.714 144.6 100.588 145.28 100.588 146.12C100.588 146.933 100.734 147.6 101.028 148.12C101.321 148.64 101.701 149.027 102.168 149.28C102.648 149.533 103.168 149.66 103.728 149.66C104.168 149.66 104.574 149.593 104.948 149.46C105.334 149.327 105.708 149.147 106.068 148.92L106.768 150.2C106.314 150.493 105.808 150.74 105.248 150.94C104.701 151.14 104.108 151.24 103.468 151.24ZM110.527 144.24C110.153 144.24 109.833 144.107 109.567 143.84C109.3 143.573 109.167 143.233 109.167 142.82C109.167 142.393 109.3 142.047 109.567 141.78C109.833 141.513 110.153 141.38 110.527 141.38C110.913 141.38 111.233 141.513 111.487 141.78C111.753 142.047 111.887 142.393 111.887 142.82C111.887 143.233 111.753 143.573 111.487 143.84C111.233 144.107 110.913 144.24 110.527 144.24ZM110.527 151.24C110.153 151.24 109.833 151.107 109.567 150.84C109.3 150.573 109.167 150.233 109.167 149.82C109.167 149.393 109.3 149.047 109.567 148.78C109.833 148.513 110.153 148.38 110.527 148.38C110.913 148.38 111.233 148.513 111.487 148.78C111.753 149.047 111.887 149.393 111.887 149.82C111.887 150.233 111.753 150.573 111.487 150.84C111.233 151.107 110.913 151.24 110.527 151.24ZM118.884 151V137.9H122.284C123.617 137.9 124.751 138.147 125.684 138.64C126.631 139.133 127.351 139.867 127.844 140.84C128.337 141.8 128.584 142.987 128.584 144.4C128.584 145.813 128.337 147.013 127.844 148C127.351 148.987 126.644 149.733 125.724 150.24C124.804 150.747 123.691 151 122.384 151H118.884ZM120.924 149.34H122.144C123.091 149.34 123.884 149.153 124.524 148.78C125.164 148.407 125.651 147.86 125.984 147.14C126.317 146.407 126.484 145.493 126.484 144.4C126.484 143.307 126.317 142.407 125.984 141.7C125.651 140.98 125.164 140.447 124.524 140.1C123.884 139.74 123.091 139.56 122.144 139.56H120.924V149.34ZM133.446 151.24C132.886 151.24 132.386 151.127 131.946 150.9C131.519 150.66 131.179 150.333 130.926 149.92C130.686 149.493 130.566 148.993 130.566 148.42C130.566 147.367 131.033 146.553 131.966 145.98C132.899 145.407 134.386 145.007 136.426 144.78C136.426 144.407 136.366 144.053 136.246 143.72C136.139 143.387 135.946 143.12 135.666 142.92C135.399 142.72 135.026 142.62 134.546 142.62C134.026 142.62 133.526 142.72 133.046 142.92C132.579 143.12 132.139 143.353 131.726 143.62L130.966 142.26C131.299 142.047 131.673 141.847 132.086 141.66C132.499 141.46 132.939 141.3 133.406 141.18C133.886 141.047 134.386 140.98 134.906 140.98C135.706 140.98 136.366 141.147 136.886 141.48C137.419 141.813 137.813 142.287 138.066 142.9C138.319 143.513 138.446 144.253 138.446 145.12V151H136.786L136.626 149.88H136.566C136.126 150.253 135.646 150.573 135.126 150.84C134.606 151.107 134.046 151.24 133.446 151.24ZM134.066 149.64C134.493 149.64 134.893 149.54 135.266 149.34C135.639 149.14 136.026 148.853 136.426 148.48V146.06C135.453 146.18 134.679 146.34 134.106 146.54C133.546 146.74 133.139 146.987 132.886 147.28C132.646 147.573 132.526 147.9 132.526 148.26C132.526 148.74 132.673 149.093 132.966 149.32C133.259 149.533 133.626 149.64 134.066 149.64ZM144.328 151.24C143.234 151.24 142.468 150.927 142.028 150.3C141.588 149.66 141.368 148.833 141.368 147.82V142.84H139.948V141.32L141.468 141.22L141.708 138.52H143.388V141.22H145.948V142.84H143.388V147.84C143.388 148.413 143.501 148.853 143.728 149.16C143.954 149.467 144.321 149.62 144.828 149.62C145.001 149.62 145.181 149.6 145.368 149.56C145.568 149.507 145.741 149.447 145.888 149.38L146.248 150.88C145.981 150.973 145.681 151.053 145.348 151.12C145.014 151.2 144.674 151.24 144.328 151.24ZM151.847 151.24C150.953 151.24 150.147 151.04 149.427 150.64C148.72 150.227 148.153 149.64 147.727 148.88C147.3 148.12 147.087 147.2 147.087 146.12C147.087 145.067 147.3 144.16 147.727 143.4C148.153 142.627 148.707 142.033 149.387 141.62C150.067 141.193 150.787 140.98 151.547 140.98C152.4 140.98 153.12 141.173 153.707 141.56C154.307 141.947 154.76 142.487 155.067 143.18C155.373 143.873 155.527 144.68 155.527 145.6C155.527 145.787 155.513 145.98 155.487 146.18C155.473 146.367 155.453 146.52 155.427 146.64H148.667L148.647 145.24H153.767C153.767 144.387 153.58 143.727 153.207 143.26C152.847 142.793 152.307 142.56 151.587 142.56C151.16 142.56 150.747 142.68 150.347 142.92C149.947 143.16 149.613 143.547 149.347 144.08C149.093 144.6 148.967 145.28 148.967 146.12C148.967 146.933 149.113 147.6 149.407 148.12C149.7 148.64 150.08 149.027 150.547 149.28C151.027 149.533 151.547 149.66 152.107 149.66C152.547 149.66 152.953 149.593 153.327 149.46C153.713 149.327 154.087 149.147 154.447 148.92L155.147 150.2C154.693 150.493 154.187 150.74 153.627 150.94C153.08 151.14 152.487 151.24 151.847 151.24ZM70.0156 177L74.3556 163.9H76.7156L81.0556 177H78.8956L76.7756 169.88C76.549 169.16 76.3356 168.44 76.1356 167.72C75.9356 166.987 75.7356 166.253 75.5356 165.52H75.4556C75.269 166.253 75.069 166.987 74.8556 167.72C74.6556 168.44 74.449 169.16 74.2356 169.88L72.0956 177H70.0156ZM72.4556 173.26V171.66H78.5556V173.26H72.4556ZM85.3731 177.24C84.3465 177.24 83.5865 176.907 83.0931 176.24C82.6131 175.573 82.3731 174.62 82.3731 173.38V167.22H84.3931V173.12C84.3931 173.973 84.5265 174.587 84.7931 174.96C85.0598 175.32 85.4798 175.5 86.0531 175.5C86.5065 175.5 86.9131 175.387 87.2731 175.16C87.6331 174.92 88.0131 174.54 88.4131 174.02V167.22H90.4331V177H88.7731L88.6131 175.52H88.5531C88.1131 176.04 87.6398 176.46 87.1331 176.78C86.6398 177.087 86.0531 177.24 85.3731 177.24ZM96.7888 177.24C95.6954 177.24 94.9288 176.927 94.4888 176.3C94.0488 175.66 93.8288 174.833 93.8288 173.82V168.84H92.4088V167.32L93.9288 167.22L94.1688 164.52H95.8488V167.22H98.4088V168.84H95.8488V173.84C95.8488 174.413 95.9621 174.853 96.1888 175.16C96.4154 175.467 96.7821 175.62 97.2888 175.62C97.4621 175.62 97.6421 175.6 97.8288 175.56C98.0288 175.507 98.2021 175.447 98.3488 175.38L98.7088 176.88C98.4421 176.973 98.1421 177.053 97.8088 177.12C97.4754 177.2 97.1354 177.24 96.7888 177.24ZM100.52 177V162.82H102.54V166.58L102.46 168.52C102.887 168.107 103.354 167.747 103.86 167.44C104.38 167.133 104.974 166.98 105.64 166.98C106.68 166.98 107.44 167.313 107.92 167.98C108.4 168.647 108.64 169.6 108.64 170.84V177H106.62V171.1C106.62 170.247 106.487 169.64 106.22 169.28C105.967 168.907 105.547 168.72 104.96 168.72C104.494 168.72 104.08 168.833 103.72 169.06C103.374 169.287 102.98 169.62 102.54 170.06V177H100.52ZM115.476 177.24C114.662 177.24 113.909 177.04 113.216 176.64C112.522 176.24 111.956 175.66 111.516 174.9C111.089 174.127 110.876 173.2 110.876 172.12C110.876 171.04 111.089 170.12 111.516 169.36C111.956 168.587 112.522 168 113.216 167.6C113.909 167.187 114.662 166.98 115.476 166.98C116.276 166.98 117.022 167.187 117.716 167.6C118.422 168 118.989 168.587 119.416 169.36C119.856 170.12 120.076 171.04 120.076 172.12C120.076 173.2 119.856 174.127 119.416 174.9C118.989 175.66 118.422 176.24 117.716 176.64C117.022 177.04 116.276 177.24 115.476 177.24ZM115.476 175.58C115.996 175.58 116.442 175.44 116.816 175.16C117.202 174.867 117.496 174.46 117.696 173.94C117.896 173.42 117.996 172.813 117.996 172.12C117.996 171.427 117.896 170.82 117.696 170.3C117.496 169.767 117.202 169.36 116.816 169.08C116.442 168.787 115.996 168.64 115.476 168.64C114.956 168.64 114.509 168.787 114.136 169.08C113.762 169.36 113.469 169.767 113.256 170.3C113.056 170.82 112.956 171.427 112.956 172.12C112.956 172.813 113.056 173.42 113.256 173.94C113.469 174.46 113.762 174.867 114.136 175.16C114.509 175.44 114.956 175.58 115.476 175.58ZM122.474 177V167.22H124.134L124.294 168.98H124.354C124.7 168.353 125.114 167.867 125.594 167.52C126.087 167.16 126.6 166.98 127.134 166.98C127.36 166.98 127.56 167 127.734 167.04C127.907 167.067 128.067 167.113 128.214 167.18L127.854 168.94C127.68 168.887 127.52 168.847 127.374 168.82C127.24 168.793 127.074 168.78 126.874 168.78C126.474 168.78 126.054 168.94 125.614 169.26C125.174 169.567 124.8 170.113 124.494 170.9V177H122.474ZM131.23 170.24C130.857 170.24 130.537 170.107 130.27 169.84C130.003 169.573 129.87 169.233 129.87 168.82C129.87 168.393 130.003 168.047 130.27 167.78C130.537 167.513 130.857 167.38 131.23 167.38C131.617 167.38 131.937 167.513 132.19 167.78C132.457 168.047 132.59 168.393 132.59 168.82C132.59 169.233 132.457 169.573 132.19 169.84C131.937 170.107 131.617 170.24 131.23 170.24ZM131.23 177.24C130.857 177.24 130.537 177.107 130.27 176.84C130.003 176.573 129.87 176.233 129.87 175.82C129.87 175.393 130.003 175.047 130.27 174.78C130.537 174.513 130.857 174.38 131.23 174.38C131.617 174.38 131.937 174.513 132.19 174.78C132.457 175.047 132.59 175.393 132.59 175.82C132.59 176.233 132.457 176.573 132.19 176.84C131.937 177.107 131.617 177.24 131.23 177.24ZM144.387 177.24C143.667 177.24 143.007 177.133 142.407 176.92C141.821 176.707 141.307 176.373 140.867 175.92C140.441 175.467 140.107 174.867 139.867 174.12C139.641 173.373 139.527 172.467 139.527 171.4V163.9H141.567V171.52C141.567 172.52 141.687 173.307 141.927 173.88C142.167 174.453 142.501 174.86 142.927 175.1C143.354 175.34 143.841 175.46 144.387 175.46C144.934 175.46 145.427 175.34 145.867 175.1C146.307 174.86 146.647 174.453 146.887 173.88C147.141 173.307 147.267 172.52 147.267 171.52V163.9H149.227V171.4C149.227 172.467 149.107 173.373 148.867 174.12C148.641 174.867 148.314 175.467 147.887 175.92C147.461 176.373 146.947 176.707 146.347 176.92C145.761 177.133 145.107 177.24 144.387 177.24ZM154.997 177.24C154.317 177.24 153.65 177.113 152.997 176.86C152.357 176.593 151.797 176.267 151.317 175.88L152.277 174.58C152.704 174.913 153.137 175.187 153.577 175.4C154.03 175.6 154.524 175.7 155.057 175.7C155.644 175.7 156.077 175.573 156.357 175.32C156.637 175.067 156.777 174.753 156.777 174.38C156.777 174.087 156.67 173.84 156.457 173.64C156.244 173.427 155.97 173.247 155.637 173.1C155.317 172.953 154.977 172.813 154.617 172.68C154.177 172.507 153.737 172.307 153.297 172.08C152.87 171.853 152.51 171.56 152.217 171.2C151.937 170.84 151.797 170.387 151.797 169.84C151.797 169.013 152.104 168.333 152.717 167.8C153.344 167.253 154.197 166.98 155.277 166.98C155.93 166.98 156.524 167.093 157.057 167.32C157.59 167.547 158.05 167.813 158.437 168.12L157.497 169.38C157.15 169.127 156.797 168.92 156.437 168.76C156.09 168.6 155.717 168.52 155.317 168.52C154.77 168.52 154.364 168.64 154.097 168.88C153.844 169.12 153.717 169.407 153.717 169.74C153.717 170.02 153.817 170.253 154.017 170.44C154.217 170.613 154.477 170.767 154.797 170.9C155.117 171.033 155.457 171.167 155.817 171.3C156.27 171.473 156.717 171.673 157.157 171.9C157.597 172.127 157.964 172.427 158.257 172.8C158.55 173.16 158.697 173.647 158.697 174.26C158.697 174.807 158.55 175.307 158.257 175.76C157.977 176.213 157.564 176.573 157.017 176.84C156.47 177.107 155.797 177.24 154.997 177.24ZM164.933 177.24C164.039 177.24 163.233 177.04 162.513 176.64C161.806 176.227 161.239 175.64 160.813 174.88C160.386 174.12 160.173 173.2 160.173 172.12C160.173 171.067 160.386 170.16 160.813 169.4C161.239 168.627 161.793 168.033 162.473 167.62C163.153 167.193 163.873 166.98 164.633 166.98C165.486 166.98 166.206 167.173 166.793 167.56C167.393 167.947 167.846 168.487 168.153 169.18C168.459 169.873 168.613 170.68 168.613 171.6C168.613 171.787 168.599 171.98 168.573 172.18C168.559 172.367 168.539 172.52 168.513 172.64H161.753L161.733 171.24H166.853C166.853 170.387 166.666 169.727 166.293 169.26C165.933 168.793 165.393 168.56 164.673 168.56C164.246 168.56 163.833 168.68 163.433 168.92C163.033 169.16 162.699 169.547 162.433 170.08C162.179 170.6 162.053 171.28 162.053 172.12C162.053 172.933 162.199 173.6 162.493 174.12C162.786 174.64 163.166 175.027 163.633 175.28C164.113 175.533 164.633 175.66 165.192 175.66C165.633 175.66 166.039 175.593 166.413 175.46C166.799 175.327 167.173 175.147 167.533 174.92L168.233 176.2C167.779 176.493 167.273 176.74 166.713 176.94C166.166 177.14 165.573 177.24 164.933 177.24ZM170.892 177V167.22H172.552L172.712 168.98H172.772C173.118 168.353 173.532 167.867 174.012 167.52C174.505 167.16 175.018 166.98 175.552 166.98C175.778 166.98 175.978 167 176.152 167.04C176.325 167.067 176.485 167.113 176.632 167.18L176.272 168.94C176.098 168.887 175.938 168.847 175.792 168.82C175.658 168.793 175.492 168.78 175.292 168.78C174.892 168.78 174.472 168.94 174.032 169.26C173.592 169.567 173.218 170.113 172.912 170.9V177H170.892ZM75.4756 203.24C74.5823 203.24 73.7356 203.067 72.9356 202.72C72.1356 202.373 71.429 201.9 70.8156 201.3L72.0156 199.92C72.4823 200.387 73.0223 200.76 73.6356 201.04C74.249 201.32 74.8756 201.46 75.5156 201.46C76.3156 201.46 76.929 201.293 77.3556 200.96C77.7823 200.613 77.9956 200.153 77.9956 199.58C77.9956 199.18 77.9023 198.86 77.7156 198.62C77.5423 198.38 77.2956 198.173 76.9756 198C76.669 197.827 76.309 197.653 75.8956 197.48L74.0756 196.68C73.649 196.507 73.229 196.273 72.8156 195.98C72.4156 195.687 72.0823 195.32 71.8156 194.88C71.549 194.44 71.4156 193.9 71.4156 193.26C71.4156 192.567 71.6023 191.953 71.9756 191.42C72.349 190.873 72.8556 190.447 73.4956 190.14C74.1356 189.82 74.869 189.66 75.6956 189.66C76.469 189.66 77.1956 189.813 77.8756 190.12C78.569 190.413 79.1623 190.807 79.6556 191.3L78.5956 192.6C78.1956 192.24 77.7556 191.96 77.2756 191.76C76.7956 191.547 76.269 191.44 75.6956 191.44C75.029 191.44 74.489 191.593 74.0756 191.9C73.6756 192.193 73.4756 192.607 73.4756 193.14C73.4756 193.513 73.5756 193.82 73.7756 194.06C73.9756 194.3 74.2423 194.5 74.5756 194.66C74.909 194.82 75.249 194.98 75.5956 195.14L77.3956 195.9C77.9156 196.113 78.3756 196.373 78.7756 196.68C79.1756 196.987 79.489 197.36 79.7156 197.8C79.9556 198.24 80.0756 198.78 80.0756 199.42C80.0756 200.127 79.889 200.773 79.5156 201.36C79.1556 201.933 78.629 202.393 77.9356 202.74C77.2423 203.073 76.4223 203.24 75.4756 203.24ZM85.1481 203.24C84.0548 203.24 83.2881 202.927 82.8481 202.3C82.4081 201.66 82.1881 200.833 82.1881 199.82V194.84H80.7681V193.32L82.2881 193.22L82.5281 190.52H84.2081V193.22H86.7681V194.84H84.2081V199.84C84.2081 200.413 84.3215 200.853 84.5481 201.16C84.7748 201.467 85.1415 201.62 85.6481 201.62C85.8215 201.62 86.0015 201.6 86.1881 201.56C86.3881 201.507 86.5615 201.447 86.7081 201.38L87.0681 202.88C86.8015 202.973 86.5015 203.053 86.1681 203.12C85.8348 203.2 85.4948 203.24 85.1481 203.24ZM90.7702 203.24C90.2102 203.24 89.7102 203.127 89.2702 202.9C88.8435 202.66 88.5035 202.333 88.2502 201.92C88.0102 201.493 87.8902 200.993 87.8902 200.42C87.8902 199.367 88.3568 198.553 89.2902 197.98C90.2235 197.407 91.7102 197.007 93.7502 196.78C93.7502 196.407 93.6902 196.053 93.5702 195.72C93.4635 195.387 93.2702 195.12 92.9902 194.92C92.7235 194.72 92.3502 194.62 91.8702 194.62C91.3502 194.62 90.8502 194.72 90.3702 194.92C89.9035 195.12 89.4635 195.353 89.0502 195.62L88.2902 194.26C88.6235 194.047 88.9968 193.847 89.4102 193.66C89.8235 193.46 90.2635 193.3 90.7302 193.18C91.2102 193.047 91.7102 192.98 92.2302 192.98C93.0302 192.98 93.6902 193.147 94.2102 193.48C94.7435 193.813 95.1368 194.287 95.3902 194.9C95.6435 195.513 95.7702 196.253 95.7702 197.12V203H94.1102L93.9502 201.88H93.8902C93.4502 202.253 92.9702 202.573 92.4502 202.84C91.9302 203.107 91.3702 203.24 90.7702 203.24ZM91.3902 201.64C91.8168 201.64 92.2168 201.54 92.5902 201.34C92.9635 201.14 93.3502 200.853 93.7502 200.48V198.06C92.7768 198.18 92.0035 198.34 91.4302 198.54C90.8702 198.74 90.4635 198.987 90.2102 199.28C89.9702 199.573 89.8502 199.9 89.8502 200.26C89.8502 200.74 89.9968 201.093 90.2902 201.32C90.5835 201.533 90.9502 201.64 91.3902 201.64ZM101.652 203.24C100.559 203.24 99.792 202.927 99.352 202.3C98.912 201.66 98.692 200.833 98.692 199.82V194.84H97.272V193.32L98.792 193.22L99.032 190.52H100.712V193.22H103.272V194.84H100.712V199.84C100.712 200.413 100.825 200.853 101.052 201.16C101.279 201.467 101.645 201.62 102.152 201.62C102.325 201.62 102.505 201.6 102.692 201.56C102.892 201.507 103.065 201.447 103.212 201.38L103.572 202.88C103.305 202.973 103.005 203.053 102.672 203.12C102.339 203.2 101.999 203.24 101.652 203.24ZM107.946 203.24C107.266 203.24 106.599 203.113 105.946 202.86C105.306 202.593 104.746 202.267 104.266 201.88L105.226 200.58C105.653 200.913 106.086 201.187 106.526 201.4C106.979 201.6 107.473 201.7 108.006 201.7C108.593 201.7 109.026 201.573 109.306 201.32C109.586 201.067 109.726 200.753 109.726 200.38C109.726 200.087 109.619 199.84 109.406 199.64C109.193 199.427 108.919 199.247 108.586 199.1C108.266 198.953 107.926 198.813 107.566 198.68C107.126 198.507 106.686 198.307 106.246 198.08C105.819 197.853 105.459 197.56 105.166 197.2C104.886 196.84 104.746 196.387 104.746 195.84C104.746 195.013 105.053 194.333 105.666 193.8C106.293 193.253 107.146 192.98 108.226 192.98C108.879 192.98 109.473 193.093 110.006 193.32C110.539 193.547 110.999 193.813 111.386 194.12L110.446 195.38C110.099 195.127 109.746 194.92 109.386 194.76C109.039 194.6 108.666 194.52 108.266 194.52C107.719 194.52 107.313 194.64 107.046 194.88C106.793 195.12 106.666 195.407 106.666 195.74C106.666 196.02 106.766 196.253 106.966 196.44C107.166 196.613 107.426 196.767 107.746 196.9C108.066 197.033 108.406 197.167 108.766 197.3C109.219 197.473 109.666 197.673 110.106 197.9C110.546 198.127 110.913 198.427 111.206 198.8C111.499 199.16 111.646 199.647 111.646 200.26C111.646 200.807 111.499 201.307 111.206 201.76C110.926 202.213 110.513 202.573 109.966 202.84C109.419 203.107 108.746 203.24 107.946 203.24ZM114.902 196.24C114.528 196.24 114.208 196.107 113.942 195.84C113.675 195.573 113.542 195.233 113.542 194.82C113.542 194.393 113.675 194.047 113.942 193.78C114.208 193.513 114.528 193.38 114.902 193.38C115.288 193.38 115.608 193.513 115.862 193.78C116.128 194.047 116.262 194.393 116.262 194.82C116.262 195.233 116.128 195.573 115.862 195.84C115.608 196.107 115.288 196.24 114.902 196.24ZM114.902 203.24C114.528 203.24 114.208 203.107 113.942 202.84C113.675 202.573 113.542 202.233 113.542 201.82C113.542 201.393 113.675 201.047 113.942 200.78C114.208 200.513 114.528 200.38 114.902 200.38C115.288 200.38 115.608 200.513 115.862 200.78C116.128 201.047 116.262 201.393 116.262 201.82C116.262 202.233 116.128 202.573 115.862 202.84C115.608 203.107 115.288 203.24 114.902 203.24ZM126.999 203.24C126.106 203.24 125.259 203.067 124.459 202.72C123.659 202.373 122.952 201.9 122.339 201.3L123.539 199.92C124.006 200.387 124.546 200.76 125.159 201.04C125.772 201.32 126.399 201.46 127.039 201.46C127.839 201.46 128.452 201.293 128.879 200.96C129.306 200.613 129.519 200.153 129.519 199.58C129.519 199.18 129.426 198.86 129.239 198.62C129.066 198.38 128.819 198.173 128.499 198C128.192 197.827 127.832 197.653 127.419 197.48L125.599 196.68C125.172 196.507 124.752 196.273 124.339 195.98C123.939 195.687 123.606 195.32 123.339 194.88C123.072 194.44 122.939 193.9 122.939 193.26C122.939 192.567 123.126 191.953 123.499 191.42C123.872 190.873 124.379 190.447 125.019 190.14C125.659 189.82 126.392 189.66 127.219 189.66C127.992 189.66 128.719 189.813 129.399 190.12C130.092 190.413 130.686 190.807 131.179 191.3L130.119 192.6C129.719 192.24 129.279 191.96 128.799 191.76C128.319 191.547 127.792 191.44 127.219 191.44C126.552 191.44 126.012 191.593 125.599 191.9C125.199 192.193 124.999 192.607 124.999 193.14C124.999 193.513 125.099 193.82 125.299 194.06C125.499 194.3 125.766 194.5 126.099 194.66C126.432 194.82 126.772 194.98 127.119 195.14L128.919 195.9C129.439 196.113 129.899 196.373 130.299 196.68C130.699 196.987 131.012 197.36 131.239 197.8C131.479 198.24 131.599 198.78 131.599 199.42C131.599 200.127 131.412 200.773 131.039 201.36C130.679 201.933 130.152 202.393 129.459 202.74C128.766 203.073 127.946 203.24 126.999 203.24ZM136.672 203.24C135.578 203.24 134.812 202.927 134.372 202.3C133.932 201.66 133.712 200.833 133.712 199.82V194.84H132.292V193.32L133.812 193.22L134.052 190.52H135.732V193.22H138.292V194.84H135.732V199.84C135.732 200.413 135.845 200.853 136.072 201.16C136.298 201.467 136.665 201.62 137.172 201.62C137.345 201.62 137.525 201.6 137.712 201.56C137.912 201.507 138.085 201.447 138.232 201.38L138.592 202.88C138.325 202.973 138.025 203.053 137.692 203.12C137.358 203.2 137.018 203.24 136.672 203.24ZM142.294 203.24C141.734 203.24 141.234 203.127 140.794 202.9C140.367 202.66 140.027 202.333 139.774 201.92C139.534 201.493 139.414 200.993 139.414 200.42C139.414 199.367 139.88 198.553 140.814 197.98C141.747 197.407 143.234 197.007 145.274 196.78C145.274 196.407 145.214 196.053 145.094 195.72C144.987 195.387 144.794 195.12 144.514 194.92C144.247 194.72 143.874 194.62 143.394 194.62C142.874 194.62 142.374 194.72 141.894 194.92C141.427 195.12 140.987 195.353 140.574 195.62L139.814 194.26C140.147 194.047 140.52 193.847 140.934 193.66C141.347 193.46 141.787 193.3 142.254 193.18C142.734 193.047 143.234 192.98 143.754 192.98C144.554 192.98 145.214 193.147 145.734 193.48C146.267 193.813 146.66 194.287 146.914 194.9C147.167 195.513 147.294 196.253 147.294 197.12V203H145.634L145.474 201.88H145.414C144.974 202.253 144.494 202.573 143.974 202.84C143.454 203.107 142.894 203.24 142.294 203.24ZM142.914 201.64C143.34 201.64 143.74 201.54 144.114 201.34C144.487 201.14 144.874 200.853 145.274 200.48V198.06C144.3 198.18 143.527 198.34 142.954 198.54C142.394 198.74 141.987 198.987 141.734 199.28C141.494 199.573 141.374 199.9 141.374 200.26C141.374 200.74 141.52 201.093 141.814 201.32C142.107 201.533 142.474 201.64 142.914 201.64ZM153.175 203.24C152.082 203.24 151.315 202.927 150.875 202.3C150.435 201.66 150.215 200.833 150.215 199.82V194.84H148.795V193.32L150.315 193.22L150.555 190.52H152.235V193.22H154.795V194.84H152.235V199.84C152.235 200.413 152.349 200.853 152.575 201.16C152.802 201.467 153.169 201.62 153.675 201.62C153.849 201.62 154.029 201.6 154.215 201.56C154.415 201.507 154.589 201.447 154.735 201.38L155.095 202.88C154.829 202.973 154.529 203.053 154.195 203.12C153.862 203.2 153.522 203.24 153.175 203.24ZM54.7 232.04V230.92H55.18C55.6867 230.92 56.0267 230.793 56.2 230.54C56.3733 230.287 56.46 229.847 56.46 229.22C56.46 228.633 56.44 228.067 56.4 227.52C56.3733 226.96 56.36 226.353 56.36 225.7C56.36 225.033 56.46 224.527 56.66 224.18C56.86 223.833 57.1867 223.6 57.64 223.48V223.4C57.1867 223.28 56.86 223.053 56.66 222.72C56.46 222.373 56.36 221.86 56.36 221.18C56.36 220.513 56.3733 219.907 56.4 219.36C56.44 218.8 56.46 218.233 56.46 217.66C56.46 217.033 56.3733 216.593 56.2 216.34C56.0267 216.087 55.6867 215.96 55.18 215.96H54.7V214.84H55.7C56.5133 214.84 57.1133 215.033 57.5 215.42C57.9 215.793 58.1 216.507 58.1 217.56C58.1 218.04 58.08 218.48 58.04 218.88C58.0133 219.28 57.9867 219.673 57.96 220.06C57.9333 220.447 57.92 220.86 57.92 221.3C57.92 221.553 57.9667 221.793 58.06 222.02C58.1667 222.247 58.34 222.44 58.58 222.6C58.8333 222.747 59.1867 222.82 59.64 222.82V224.06C58.9733 224.06 58.52 224.22 58.28 224.54C58.04 224.86 57.92 225.213 57.92 225.6C57.92 226.04 57.9333 226.453 57.96 226.84C57.9867 227.213 58.0133 227.6 58.04 228C58.08 228.4 58.1 228.84 58.1 229.32C58.1 230.373 57.9 231.087 57.5 231.46C57.1133 231.847 56.5133 232.04 55.7 232.04H54.7Z" fill="url(#paint0_linear_201_20)"/>
<rect x="20" y="24" width="196" height="240" rx="17" stroke="#FE0DF3" stroke-width="2"/>
</g>
<path d="M249 141V147H285V153H291V147H297V141H291V135H285V141H249ZM279 129H285V135H279V129ZM279 129H273V123H279V129ZM279 159H285V153H279V159ZM279 159H273V165H279V159Z" fill="#F5D632"/>
<g filter="url(#filter1_d_201_20)">
<path d="M449.047 126.458L403.291 197.826L435.137 186.033L403.291 262.536L481.26 166.376L454.538 170.912L466.984 150.349" stroke="#F5D632" stroke-width="5" stroke-linecap="round" stroke-linejoin="round"/>
</g>
<g filter="url(#filter2_b_201_20)">
<path d="M538.477 94.7897C571.761 92.4728 577.659 142.52 544.375 152.715H478.685H347.62C316.864 142.057 327.397 94.7897 356.046 94.7897C359.838 73.9365 366.579 63.2784 397.757 63.2784C413.346 11.3774 477.386 12.3045 490.447 69.7662C508.985 60.498 535.106 73.9367 538.477 94.7897Z" fill="url(#paint1_linear_201_20)" fill-opacity="0.8"/>
<path d="M538.477 94.7897C571.761 92.4728 577.659 142.52 544.375 152.715H478.685H347.62C316.864 142.057 327.397 94.7897 356.046 94.7897C359.838 73.9365 366.579 63.2784 397.757 63.2784C413.346 11.3774 477.386 12.3045 490.447 69.7662C508.985 60.498 535.106 73.9367 538.477 94.7897Z" stroke="#6770EF" stroke-opacity="0.8" stroke-width="5"/>
</g>
<g filter="url(#filter3_dddddd_201_20)">
<path d="M449.047 126.458L403.291 197.826L435.137 186.033L403.291 262.536L481.26 166.376L454.538 170.912" stroke="#F5D632" stroke-width="5" stroke-linecap="round" stroke-linejoin="round"/>
</g>
<g filter="url(#filter4_dddddd_201_20)">
<path d="M425.378 101.732H414.258L412.418 107.052H406.538L416.578 79.0919H423.098L433.138 107.052H427.218L425.378 101.732ZM423.858 97.2519L419.818 85.5719L415.778 97.2519H423.858ZM457.25 87.7719C457.25 89.2652 456.89 90.6652 456.17 91.9719C455.477 93.2785 454.37 94.3319 452.85 95.1319C451.357 95.9319 449.464 96.3319 447.17 96.3319H442.49V107.052H436.89V79.1319H447.17C449.33 79.1319 451.17 79.5052 452.69 80.2519C454.21 80.9985 455.344 82.0252 456.09 83.3319C456.864 84.6385 457.25 86.1185 457.25 87.7719ZM446.93 91.8119C448.477 91.8119 449.624 91.4652 450.37 90.7719C451.117 90.0519 451.49 89.0519 451.49 87.7719C451.49 85.0519 449.97 83.6919 446.93 83.6919H442.49V91.8119H446.93ZM466.826 79.1319V107.052H461.226V79.1319H466.826Z" fill="url(#paint2_linear_201_20)"/>
</g>
</g>
<defs>
<filter id="filter0_b_201_20" x="15" y="19" width="206" height="250" filterUnits="userSpaceOnUse" color-interpolation-filters="sRGB">
<feFlood flood-opacity="0" result="BackgroundImageFix"/>
<feGaussianBlur in="BackgroundImageFix" stdDeviation="2"/>
<feComposite in2="SourceAlpha" operator="in" result="effect1_backgroundBlur_201_20"/>
<feBlend mode="normal" in="SourceGraphic" in2="effect1_backgroundBlur_201_20" result="shape"/>
</filter>
<filter id="filter1_d_201_20" x="396.791" y="123.958" width="90.9691" height="149.078" filterUnits="userSpaceOnUse" color-interpolation-filters="sRGB">
<feFlood flood-opacity="0" result="BackgroundImageFix"/>
<feColorMatrix in="SourceAlpha" type="matrix" values="0 0 0 0 0 0 0 0 0 0 0 0 0 0 0 0 0 0 127 0" result="hardAlpha"/>
<feOffset dy="4"/>
<feGaussianBlur stdDeviation="2"/>
<feComposite in2="hardAlpha" operator="out"/>
<feColorMatrix type="matrix" values="0 0 0 0 0 0 0 0 0 0 0 0 0 0 0 0 0 0 0.25 0"/>
<feBlend mode="normal" in2="BackgroundImageFix" result="effect1_dropShadow_201_20"/>
<feBlend mode="normal" in="SourceGraphic" in2="effect1_dropShadow_201_20" result="shape"/>
</filter>
<filter id="filter2_b_201_20" x="316.505" y="12.964" width="262.578" height="152.251" filterUnits="userSpaceOnUse" color-interpolation-filters="sRGB">
<feFlood flood-opacity="0" result="BackgroundImageFix"/>
<feGaussianBlur in="BackgroundImageFix" stdDeviation="5"/>
<feComposite in2="SourceAlpha" operator="in" result="effect1_backgroundBlur_201_20"/>
<feBlend mode="normal" in="SourceGraphic" in2="effect1_backgroundBlur_201_20" result="shape"/>
</filter>
<filter id="filter3_dddddd_201_20" x="-285.04" y="-561.872" width="1454.63" height="1512.74" filterUnits="userSpaceOnUse" color-interpolation-filters="sRGB">
<feFlood flood-opacity="0" result="BackgroundImageFix"/>
<feColorMatrix in="SourceAlpha" type="matrix" values="0 0 0 0 0 0 0 0 0 0 0 0 0 0 0 0 0 0 127 0" result="hardAlpha"/>
<feOffset/>
<feGaussianBlur stdDeviation="8.16465"/>
<feColorMatrix type="matrix" values="0 0 0 0 1 0 0 0 0 1 0 0 0 0 1 0 0 0 1 0"/>
<feBlend mode="normal" in2="BackgroundImageFix" result="effect1_dropShadow_201_20"/>
<feColorMatrix in="SourceAlpha" type="matrix" values="0 0 0 0 0 0 0 0 0 0 0 0 0 0 0 0 0 0 127 0" result="hardAlpha"/>
<feOffset/>
<feGaussianBlur stdDeviation="16.3293"/>
<feColorMatrix type="matrix" values="0 0 0 0 1 0 0 0 0 1 0 0 0 0 1 0 0 0 1 0"/>
<feBlend mode="normal" in2="effect1_dropShadow_201_20" result="effect2_dropShadow_201_20"/>
<feColorMatrix in="SourceAlpha" type="matrix" values="0 0 0 0 0 0 0 0 0 0 0 0 0 0 0 0 0 0 127 0" result="hardAlpha"/>
<feOffset/>
<feGaussianBlur stdDeviation="57.1525"/>
<feColorMatrix type="matrix" values="0 0 0 0 1 0 0 0 0 1 0 0 0 0 1 0 0 0 1 0"/>
<feBlend mode="normal" in2="effect2_dropShadow_201_20" result="effect3_dropShadow_201_20"/>
<feColorMatrix in="SourceAlpha" type="matrix" values="0 0 0 0 0 0 0 0 0 0 0 0 0 0 0 0 0 0 127 0" result="hardAlpha"/>
<feOffset/>
<feGaussianBlur stdDeviation="114.305"/>
<feColorMatrix type="matrix" values="0 0 0 0 1 0 0 0 0 1 0 0 0 0 1 0 0 0 1 0"/>
<feBlend mode="normal" in2="effect3_dropShadow_201_20" result="effect4_dropShadow_201_20"/>
<feColorMatrix in="SourceAlpha" type="matrix" values="0 0 0 0 0 0 0 0 0 0 0 0 0 0 0 0 0 0 127 0" result="hardAlpha"/>
<feOffset/>
<feGaussianBlur stdDeviation="195.952"/>
<feColorMatrix type="matrix" values="0 0 0 0 1 0 0 0 0 1 0 0 0 0 1 0 0 0 1 0"/>
<feBlend mode="normal" in2="effect4_dropShadow_201_20" result="effect5_dropShadow_201_20"/>
<feColorMatrix in="SourceAlpha" type="matrix" values="0 0 0 0 0 0 0 0 0 0 0 0 0 0 0 0 0 0 127 0" result="hardAlpha"/>
<feOffset/>
<feGaussianBlur stdDeviation="342.915"/>
<feColorMatrix type="matrix" values="0 0 0 0 1 0 0 0 0 1 0 0 0 0 1 0 0 0 1 0"/>
<feBlend mode="normal" in2="effect5_dropShadow_201_20" result="effect6_dropShadow_201_20"/>
<feBlend mode="normal" in="SourceGraphic" in2="effect6_dropShadow_201_20" result="shape"/>
</filter>
<filter id="filter4_dddddd_201_20" x="24.6968" y="-302.749" width="823.97" height="791.642" filterUnits="userSpaceOnUse" color-interpolation-filters="sRGB">
<feFlood flood-opacity="0" result="BackgroundImageFix"/>
<feColorMatrix in="SourceAlpha" type="matrix" values="0 0 0 0 0 0 0 0 0 0 0 0 0 0 0 0 0 0 127 0" result="hardAlpha"/>
<feOffset/>
<feGaussianBlur stdDeviation="4.54572"/>
<feColorMatrix type="matrix" values="0 0 0 0 1 0 0 0 0 1 0 0 0 0 1 0 0 0 1 0"/>
<feBlend mode="normal" in2="BackgroundImageFix" result="effect1_dropShadow_201_20"/>
<feColorMatrix in="SourceAlpha" type="matrix" values="0 0 0 0 0 0 0 0 0 0 0 0 0 0 0 0 0 0 127 0" result="hardAlpha"/>
<feOffset/>
<feGaussianBlur stdDeviation="9.09145"/>
<feColorMatrix type="matrix" values="0 0 0 0 1 0 0 0 0 1 0 0 0 0 1 0 0 0 1 0"/>
<feBlend mode="normal" in2="effect1_dropShadow_201_20" result="effect2_dropShadow_201_20"/>
<feColorMatrix in="SourceAlpha" type="matrix" values="0 0 0 0 0 0 0 0 0 0 0 0 0 0 0 0 0 0 127 0" result="hardAlpha"/>
<feOffset/>
<feGaussianBlur stdDeviation="31.8201"/>
<feColorMatrix type="matrix" values="0 0 0 0 1 0 0 0 0 1 0 0 0 0 1 0 0 0 1 0"/>
<feBlend mode="normal" in2="effect2_dropShadow_201_20" result="effect3_dropShadow_201_20"/>
<feColorMatrix in="SourceAlpha" type="matrix" values="0 0 0 0 0 0 0 0 0 0 0 0 0 0 0 0 0 0 127 0" result="hardAlpha"/>
<feOffset/>
<feGaussianBlur stdDeviation="63.6401"/>
<feColorMatrix type="matrix" values="0 0 0 0 1 0 0 0 0 1 0 0 0 0 1 0 0 0 1 0"/>
<feBlend mode="normal" in2="effect3_dropShadow_201_20" result="effect4_dropShadow_201_20"/>
<feColorMatrix in="SourceAlpha" type="matrix" values="0 0 0 0 0 0 0 0 0 0 0 0 0 0 0 0 0 0 127 0" result="hardAlpha"/>
<feOffset/>
<feGaussianBlur stdDeviation="109.097"/>
<feColorMatrix type="matrix" values="0 0 0 0 1 0 0 0 0 1 0 0 0 0 1 0 0 0 1 0"/>
<feBlend mode="normal" in2="effect4_dropShadow_201_20" result="effect5_dropShadow_201_20"/>
<feColorMatrix in="SourceAlpha" type="matrix" values="0 0 0 0 0 0 0 0 0 0 0 0 0 0 0 0 0 0 127 0" result="hardAlpha"/>
<feOffset/>
<feGaussianBlur stdDeviation="190.92"/>
<feColorMatrix type="matrix" values="0 0 0 0 1 0 0 0 0 1 0 0 0 0 1 0 0 0 1 0"/>
<feBlend mode="normal" in2="effect5_dropShadow_201_20" result="effect6_dropShadow_201_20"/>
<feBlend mode="normal" in="SourceGraphic" in2="effect6_dropShadow_201_20" result="shape"/>
</filter>
<linearGradient id="paint0_linear_201_20" x1="118" y1="53" x2="118" y2="235" gradientUnits="userSpaceOnUse">
<stop stop-color="#FF00FF"/>
<stop offset="1" stop-color="#F5D632"/>
</linearGradient>
<linearGradient id="paint1_linear_201_20" x1="409" y1="62.4641" x2="528" y2="152.464" gradientUnits="userSpaceOnUse">
<stop offset="0.278379" stop-color="#6770EF"/>
<stop offset="1" stop-color="#FF00FF"/>
</linearGradient>
<linearGradient id="paint2_linear_201_20" x1="443" y1="65.4641" x2="443" y2="232.464" gradientUnits="userSpaceOnUse">
<stop offset="0.0958084"/>
<stop offset="0.371257" stop-opacity="0"/>
</linearGradient>
<clipPath id="clip0_201_20">
<rect width="594" height="284" fill="white"/>
</clipPath>
</defs>
</svg>
